<?xml version="1.0" encoding="UTF-8"?>
<!DOCTYPE svg PUBLIC "-//W3C//DTD SVG 1.1//EN" "http://www.w3.org/Graphics/SVG/1.1/DTD/svg11.dtd">
<!-- Creator: CorelDRAW X7 -->
<svg xmlns="http://www.w3.org/2000/svg" xml:space="preserve" width="866px" height="1339px" version="1.1" style="shape-rendering:geometricPrecision; text-rendering:geometricPrecision; image-rendering:optimizeQuality; fill-rule:evenodd; clip-rule:evenodd"
viewBox="0 0 866 1338"
 xmlns:xlink="http://www.w3.org/1999/xlink">
 <defs>
  <style type="text/css">
   <![CDATA[
    .fil0 {fill:#0070BA}
    .fil1 {fill:#29A8E0}
    .fil3 {fill:#FEFEFE}
    .fil2 {fill:black;fill-rule:nonzero}
   ]]>
  </style>
 </defs>
 <g id="Слой_x0020_1">
  <metadata id="CorelCorpID_0Corel-Layer"/>
  <polygon class="fil0" points="90,1165 17,315 849,315 774,1165 433,1260 "/>
  <polygon class="fil1" points="435,1187 435,382 773,384 711,1108 "/>
  <path class="fil2" d="M359 235c-13,5 -28,7 -45,7 -17,0 -32,-3 -44,-10 -12,-6 -22,-15 -28,-27 -7,-12 -10,-26 -10,-42 0,-17 4,-32 11,-45 7,-13 17,-23 31,-30 13,-7 28,-11 45,-11 14,0 28,2 40,5l0 45c-4,-3 -9,-5 -15,-7 -7,-1 -13,-2 -19,-2 -13,0 -23,4 -31,11 -8,8 -11,18 -11,31 0,13 3,23 11,30 8,7 18,11 30,11 12,0 24,-3 35,-9l0 43zm136 -44c0,11 -3,20 -9,28 -5,8 -13,13 -23,17 -11,4 -23,6 -37,6 -17,0 -32,-3 -46,-8l0 -44c7,5 14,9 22,12 8,3 16,4 23,4 5,0 9,-1 12,-3 3,-1 4,-4 4,-8 0,-2 -1,-5 -2,-7 -1,-2 -4,-3 -7,-5 -2,-2 -8,-4 -16,-7 -26,-10 -38,-26 -38,-48 0,-15 5,-28 17,-37 12,-9 28,-14 47,-14 6,0 11,0 16,1 4,0 9,1 12,1 4,1 10,2 16,4l0 41c-13,-7 -26,-11 -39,-11 -5,0 -10,1 -13,3 -3,2 -5,5 -5,8 0,3 1,6 4,8 3,3 8,5 17,9 16,7 28,14 35,22 6,8 10,17 10,28zm130 0c0,11 -3,20 -8,28 -6,8 -14,13 -24,17 -10,4 -23,6 -37,6 -17,0 -32,-3 -46,-8l0 -44c7,5 14,9 22,12 8,3 16,4 23,4 5,0 9,-1 12,-3 3,-1 4,-4 4,-8 0,-2 0,-5 -2,-7 -1,-2 -3,-3 -6,-5 -3,-2 -9,-4 -17,-7 -25,-10 -38,-26 -38,-48 0,-15 6,-28 17,-37 12,-9 28,-14 48,-14 5,0 10,0 15,1 5,0 9,1 13,1 3,1 9,2 16,4l0 41c-14,-7 -27,-11 -40,-11 -5,0 -10,1 -13,3 -3,2 -5,5 -5,8 0,3 2,6 4,8 3,3 8,5 17,9 16,7 28,14 35,22 7,8 10,17 10,28z"/>
  <polygon class="fil3" points="647,1016 435,1077 218,1018 204,854 311,854 319,937 435,968 548,936 559,801 199,801 190,697 298,697 312,697 569,697 578,590 288,590 181,590 172,486 694,486 "/>
 </g>
</svg>
