<?xml version="1.0" encoding="UTF-8"?>
<!DOCTYPE svg PUBLIC "-//W3C//DTD SVG 1.1//EN" "http://www.w3.org/Graphics/SVG/1.1/DTD/svg11.dtd">
<!-- Creator: CorelDRAW 2017 -->
<svg xmlns="http://www.w3.org/2000/svg" xml:space="preserve" width="130mm" height="170mm" version="1.1" style="shape-rendering:geometricPrecision; text-rendering:geometricPrecision; image-rendering:optimizeQuality; fill-rule:evenodd; clip-rule:evenodd"
viewBox="0 0 13000 17000"
 xmlns:xlink="http://www.w3.org/1999/xlink">
 <defs>
  <style type="text/css">
   <![CDATA[
    .fil0 {fill:#E44D26}
    .fil1 {fill:#FC7135}
    .fil2 {fill:#FEFEFE}
    .fil3 {fill:#EBECEC;fill-rule:nonzero}
   ]]>
  </style>
 </defs>
 <g id="Слой_x0020_1">
  <metadata id="CorelCorpID_0Corel-Layer"/>
  <polygon class="fil0" points="2138.16,14795.4 1218.57,3995.4 11781.44,3995.4 10836.98,14795.4 6503.6,16004.6 "/>
  <polygon class="fil1" points="6525,15075 6525,4850 10825,4875 10025,14075 "/>
  <polygon class="fil2" points="3533.75,10175.02 3183.79,6175 9816.22,6175 9700.3,7500 4662.88,7499.98 4781,8850.02 9585.66,8850.02 9223.69,12900 6523.69,13676.69 3773.69,12925 3592.56,10850 4955.97,10849.98 5048.69,11900 6523.69,12297.31 7955.22,11887.44 8105.04,10175.02 "/>
  <path class="fil3" d="M4382.96 2777.32l0 -559.29 -518.57 0 0 559.29 -452.15 0 0 -1500 452.15 0 0 555 518.57 0 0 -555 452.14 0 0 1500 -452.14 0zm1506.78 -1146.43l0 1146.43 -454.28 0 0 -1146.43 -420.01 0 0 -353.57 1298.58 0 0 353.57 -424.29 0zm1978.21 1146.43l0 -822.14c0,-77.51 2.5,-162.5 7.15,-255.36l3.21 -68.93 -12.5 0c-22.14,117.86 -39.29,199.28 -51.07,244.64l-221.07 901.79 -424.64 0 -231.08 -891.07c-6.43,-22.5 -22.86,-107.51 -49.29,-255.36l-12.49 0c9.64,234.29 14.64,380.71 14.64,439.28l0 707.15 -396.43 0 0 -1500 676.79 0 206.07 814.28c5,16.79 11.43,50.72 19.64,102.15 7.86,51.06 12.86,90.71 15,118.57l6.43 0c7.5,-63.57 19.64,-138.22 36.43,-224.64l192.5 -810.36 666.42 0 0 1500 -445.71 0zm741.07 0l0 -1500 452.14 0 0 1146.42 516.43 0 0 353.58 -968.57 0z"/>
 </g>
</svg>
