<?xml version="1.0" encoding="UTF-8"?>
<!DOCTYPE svg PUBLIC "-//W3C//DTD SVG 1.1//EN" "http://www.w3.org/Graphics/SVG/1.1/DTD/svg11.dtd">
<!-- Creator: CorelDRAW X7 -->
<svg xmlns="http://www.w3.org/2000/svg" xml:space="preserve" width="866px" height="1339px" version="1.1" style="shape-rendering:geometricPrecision; text-rendering:geometricPrecision; image-rendering:optimizeQuality; fill-rule:evenodd; clip-rule:evenodd"
viewBox="0 0 866 1338"
 xmlns:xlink="http://www.w3.org/1999/xlink">
 <defs>
  <style type="text/css">
   <![CDATA[
    .fil0 {fill:#63A814}
    .fil1 {fill:#8ACF17}
    .fil3 {fill:#FEFEFE}
    .fil2 {fill:black;fill-rule:nonzero}
   ]]>
  </style>
 </defs>
 <g id="Слой_x0020_1">
  <metadata id="CorelCorpID_0Corel-Layer"/>
  <polygon class="fil0" points="90,1165 17,315 849,315 774,1165 433,1260 "/>
  <polygon class="fil1" points="435,1187 435,382 773,384 711,1108 "/>
  <path class="fil2" d="M406 171c0,47 -23,71 -69,71 -3,0 -8,0 -13,-1 -5,-1 -10,-3 -16,-4l0 -45c4,3 8,5 13,7 5,1 8,2 11,2 9,0 15,-3 20,-8 4,-5 6,-13 6,-25l0 -88 48 0 0 91zm141 20c0,11 -3,20 -9,28 -6,8 -14,13 -24,17 -10,4 -22,6 -37,6 -16,0 -32,-3 -46,-8l0 -44c7,5 15,9 23,12 8,3 15,4 22,4 5,0 10,-1 12,-3 3,-1 5,-4 5,-8 0,-2 -1,-5 -2,-7 -2,-2 -4,-3 -7,-5 -3,-2 -8,-4 -16,-7 -26,-10 -39,-26 -39,-48 0,-15 6,-28 18,-37 11,-9 27,-14 47,-14 5,0 11,0 15,1 5,0 9,1 13,1 4,1 9,2 16,4l0 41c-13,-7 -27,-11 -40,-11 -5,0 -9,1 -12,3 -4,2 -5,5 -5,8 0,3 1,6 4,8 2,3 8,5 16,9 17,7 28,14 35,22 7,8 11,17 11,28z"/>
  <path class="fil3" d="M647 1016l-212 61 -217 -59 -14 -164 107 0 8 83 116 31 113 -32c27,-311 -1,13 30,-346l-290 0 -107 0 -9 -104 522 0 -47 530z"/>
 </g>
</svg>
