<?xml version="1.0" encoding="UTF-8"?>
<!DOCTYPE svg PUBLIC "-//W3C//DTD SVG 1.1//EN" "http://www.w3.org/Graphics/SVG/1.1/DTD/svg11.dtd">
<!-- Creator: CorelDRAW X7 -->
<svg xmlns="http://www.w3.org/2000/svg" xml:space="preserve" width="1339px" height="1575px" version="1.1" style="shape-rendering:geometricPrecision; text-rendering:geometricPrecision; image-rendering:optimizeQuality; fill-rule:evenodd; clip-rule:evenodd"
viewBox="0 0 1339 1575"
 xmlns:xlink="http://www.w3.org/1999/xlink">
 <defs>
  <style type="text/css">
   <![CDATA[
    .fil0 {fill:#53C1DE}
    .fil1 {fill:black;fill-rule:nonzero}
   ]]>
  </style>
 </defs>
 <g id="Слой_x0020_1">
  <metadata id="CorelCorpID_0Corel-Layer"/>
  <g id="_304960338688">
   <path class="fil0" d="M1097 722c-13,-5 -28,-10 -42,-14 2,-10 4,-19 6,-29 33,-157 11,-284 -61,-325 -69,-40 -182,1 -297,101 -11,10 -22,20 -33,30 -7,-7 -15,-13 -22,-20 -120,-106 -240,-151 -312,-110 -69,41 -90,159 -61,308 3,15 6,29 10,44 -17,5 -33,10 -49,16 -141,49 -230,126 -230,205 0,83 96,165 242,215 12,4 24,8 36,11 -4,17 -7,32 -10,48 -28,146 -6,262 63,302 71,41 191,-1 307,-103 9,-8 19,-17 28,-25 12,11 24,22 36,32 113,97 224,137 293,97 71,-42 94,-166 64,-318 -2,-12 -5,-24 -8,-36 9,-2 17,-5 25,-7 152,-51 251,-132 251,-216 0,-80 -92,-157 -236,-206l0 0 0 0zm-33 368c-7,2 -14,5 -22,7 -17,-53 -39,-110 -67,-168 26,-57 48,-113 64,-166 14,4 27,8 40,12 123,43 198,105 198,153 0,52 -81,118 -213,162l0 0 0 0zm-54 108c13,67 15,128 6,175 -8,43 -24,71 -43,83 -42,24 -132,-8 -228,-91 -11,-9 -22,-19 -34,-30 38,-41 75,-89 112,-141 64,-6 125,-16 180,-28 2,11 5,21 7,32l0 0 0 0zm-552 253c-41,15 -73,15 -93,4 -42,-24 -59,-117 -35,-243 2,-14 6,-29 9,-44 55,12 115,21 179,26 37,52 75,99 114,141 -8,8 -17,16 -25,23 -52,45 -103,77 -149,93l0 0 0 0zm-191 -361c-65,-23 -119,-51 -155,-83 -33,-28 -50,-56 -50,-79 0,-48 72,-110 193,-152 14,-5 29,-10 45,-14 17,54 39,111 65,168 -27,58 -49,115 -66,170 -11,-3 -22,-7 -32,-10l0 0 0 0zm64 -438c-25,-127 -8,-223 33,-247 45,-26 143,11 246,102 7,6 14,12 20,19 -38,41 -76,88 -113,140 -62,6 -122,15 -177,27 -3,-14 -6,-27 -9,-41l0 0 0 0zm573 142c-13,-23 -27,-45 -41,-67 43,6 83,13 121,22 -11,36 -25,75 -42,114 -12,-23 -25,-46 -38,-69l0 0 0 0zm-234 -228c26,29 53,60 78,95 -26,-2 -52,-2 -79,-2 -26,0 -52,0 -78,2 26,-34 53,-66 79,-95l0 0 0 0zm-235 228c-13,23 -26,46 -37,69 -17,-39 -31,-78 -43,-115 38,-8 79,-15 121,-21 -14,22 -28,44 -41,67l0 0 0 0zm42 339c-44,-5 -85,-11 -122,-19 11,-38 26,-78 43,-118 12,23 24,46 37,69l0 0c14,23 28,46 42,68l0 0 0 0zm195 161c-27,-29 -54,-61 -80,-95 25,1 51,1 77,1 28,0 54,0 81,-2 -26,35 -52,68 -78,96l0 0 0 0zm270 -300c18,41 33,80 45,117 -38,9 -80,16 -124,21 14,-22 28,-44 41,-67 13,-24 26,-47 38,-71l0 0 0 0zm-87 42c-21,36 -42,71 -64,103 -39,3 -80,4 -122,4 -41,0 -81,-1 -120,-3 -22,-33 -44,-68 -65,-103l0 0c-20,-36 -39,-72 -56,-107 17,-36 36,-72 56,-107l0 0c21,-36 42,-70 65,-103 39,-3 80,-4 120,-4l0 0c42,0 82,1 122,4 22,33 43,67 64,102 20,36 40,72 57,107 -17,35 -36,71 -57,107l0 0 0 0zm117 -633c44,26 62,129 34,265 -2,8 -4,17 -6,26 -55,-13 -115,-22 -178,-28 -36,-52 -74,-99 -112,-140 10,-10 20,-19 30,-28 98,-86 190,-119 232,-95l0 0 0 0z"/>
   <path class="fil0" d="M669 810c66,0 119,53 119,118 0,66 -53,119 -119,119 -65,0 -118,-53 -118,-119 0,-65 53,-118 118,-118z"/>
  </g>
  <path class="fil1" d="M426 253l-11 -30c-2,-6 -5,-10 -8,-14 -3,-3 -7,-5 -10,-5l-2 0 0 49 -42 0 0 -140 56 0c19,0 34,3 43,10 10,6 14,16 14,29 0,9 -2,17 -8,24 -5,7 -13,11 -24,14l0 1c6,1 11,4 15,8 4,5 7,11 10,19l14 35 -47 0zm-5 -95c0,-5 -1,-9 -4,-11 -3,-3 -7,-5 -13,-5l-9 0 0 33 8 0c5,0 10,-2 13,-5 4,-3 5,-7 5,-12zm68 95l0 -140 87 0 0 33 -44 0 0 21 42 0 0 33 -42 0 0 20 48 0 0 33 -91 0zm199 0l-7 -25 -41 0 -7 25 -46 0 49 -140 52 0 45 140 -45 0zm-27 -109l-1 0c0,1 -1,4 -1,7 -1,4 -5,19 -12,47l27 0 -10 -39c-2,-5 -3,-10 -3,-15zm193 105c-12,5 -25,7 -40,7 -15,0 -28,-3 -39,-9 -11,-6 -19,-14 -25,-24 -5,-11 -8,-23 -8,-37 0,-14 3,-27 10,-39 6,-12 15,-20 27,-27 11,-6 25,-9 40,-9 12,0 24,1 35,4l0 39c-4,-2 -9,-4 -14,-5 -5,-1 -11,-2 -16,-2 -12,0 -21,3 -28,10 -6,6 -9,15 -9,27 0,11 3,20 9,26 7,6 16,10 27,10 10,0 21,-3 31,-8l0 37zm93 -103l0 107 -43 0 0 -107 -39 0 0 -33 121 0 0 33 -39 0z"/>
 </g>
</svg>
