<?xml version="1.0" encoding="UTF-8"?>
<!DOCTYPE svg PUBLIC "-//W3C//DTD SVG 1.1//EN" "http://www.w3.org/Graphics/SVG/1.1/DTD/svg11.dtd">
<!-- Creator: CorelDRAW X7 -->
<svg xmlns="http://www.w3.org/2000/svg" xml:space="preserve" width="250px" height="275px" version="1.1" style="shape-rendering:geometricPrecision; text-rendering:geometricPrecision; image-rendering:optimizeQuality; fill-rule:evenodd; clip-rule:evenodd"
viewBox="0 0 250 275"
 xmlns:xlink="http://www.w3.org/1999/xlink">
 <defs>
  <style type="text/css">
   <![CDATA[
    .fil0 {fill:#66C3D0}
   ]]>
  </style>
 </defs>
 <g id="Слой_x0020_1">
  <metadata id="CorelCorpID_0Corel-Layer"/>
  <path class="fil0" d="M118 2l-6 0 -6 1 -2 0 -2 1 -1 0 -1 0 -2 1 -1 0 -2 1 -3 0 -1 1 -1 0 -1 1 -1 0 -2 1 -2 0 -1 0 -1 1 -1 0 0 1 -1 0 -1 1 0 0 -1 1 -1 0 0 0 -1 1 -1 0 -1 1 -1 0 -1 1 -1 0 -1 1 -1 0 0 0 -1 1 0 0 -1 1 -1 0 -1 1 -2 0 0 1 -2 0 0 0 -1 1 -1 0 0 1 -1 0 -1 1 -1 0 0 1 -1 0 0 1 -1 0 0 0 -1 1 0 0 -1 1 -1 0 0 1 -1 0 -1 1 -1 0 -1 1 0 0 0 0 -1 1 0 1 -1 1 0 0 -1 1 0 0 -1 0 0 1 -1 1 0 0 -1 1 0 0 -1 1 0 0 -1 1 0 1 0 0 -1 1 0 1 -1 0 0 1 -1 0 0 1 -1 0 0 1 0 1 -1 0 0 1 -1 0 0 1 -1 1 0 2 -1 2 0 1 -1 0 0 2 0 1 -1 1 0 1 -1 1 0 1 -1 2 0 0 0 0 0 1 -1 1 0 0 0 1 0 0 -1 1 0 1 0 0 0 1 0 0 0 0 -1 1 0 0 0 0 0 3 0 0 -1 3 0 1 -1 2 0 0 0 0 0 3 0 0 0 0 1 3 0 2 0 0 0 0 1 1 0 0 0 1 1 1 0 1 0 1 0 0 0 0 0 0 0 1 1 8 0 2 0 2 1 2 0 2 1 2 0 2 1 2 0 1 1 2 0 1 0 2 1 1 0 1 1 1 0 1 1 1 0 2 1 2c0,4 0,7 1,10 2,1 3,5 4,8 3,7 2,2 6,5 4,4 4,13 11,13 1,0 1,0 2,-1 0,-2 0,-3 -1,-5 0,-4 1,-4 1,-5 0,-2 -1,-6 -2,-7l3 0 2 4 1 -1 1 3 1 0 0 -2 3 1 0 4c0,2 -1,1 -1,3l0 1c0,1 2,3 3,3l1 0c3,0 6,0 9,0 5,0 4,2 7,-1l-2 -5c0,-1 1,-3 2,-3 1,0 4,6 7,6 1,0 4,-3 5,-4 1,-2 2,-7 3,-7 3,0 2,3 5,3l3 0 0 2c0,1 0,1 1,1 1,0 0,0 2,0l-3 3 -1 0 0 1 1 0 1 3c5,0 2,-4 9,0 0,0 1,-2 1,-3 0,-7 0,-11 -4,-15 -1,-1 -14,-7 -15,-7 -1,0 -8,0 -10,0 -4,1 -3,4 -6,6 -2,1 -3,2 -6,3 -3,1 -7,-1 -7,3l-4 2c-1,-4 -7,-2 -7,-14 0,-5 -3,-5 -3,-8l-3 1 -1 -7 -2 -6c0,0 1,0 1,-1l0 -1c0,-2 -1,-2 -2,-3 0,-3 -3,-9 -4,-12 -1,-4 -2,-9 -2,-13 1,0 3,-5 5,-6 2,-4 2,-3 6,-5 3,-2 2,-4 7,-4 2,0 6,-4 7,-4l1 0c5,0 6,2 9,2l2 0c3,0 3,-2 6,-2l1 0c2,0 1,3 3,3 2,0 2,-2 4,-2l1 0c0,0 3,1 7,1 1,1 1,2 2,2 4,0 7,-1 8,-3 1,-3 4,-1 7,-3l4 0c5,4 3,3 5,8 8,0 7,-1 9,-6l2 2c7,0 4,-4 7,-8 0,-7 1,-5 5,-7l7 0 1 0c2,0 3,2 5,2 4,1 2,-1 7,2 4,2 7,5 8,10l-4 2c0,3 0,4 -2,5 0,4 -1,3 -1,6 0,1 2,0 2,3l-1 1 0 4c-1,0 -2,2 -2,4 0,2 2,2 3,3 1,1 1,2 2,3 0,1 -1,2 -1,4 0,2 3,9 5,9 0,8 -2,10 -9,10l-2 1 -6 1 0 0c-3,0 -5,-2 -7,-2 -1,0 -6,2 -6,2 -6,0 -7,0 -11,3 -3,2 -5,5 -7,8 -2,4 -2,7 -1,12 1,2 1,4 2,6 1,2 2,3 2,5 5,-1 5,-4 7,-4 2,0 3,0 5,1l2 -1c-2,-2 -6,-7 -10,-7l-1 -1c1,-2 2,-6 3,-6 2,0 1,1 1,3l0 2 6 1 0 1 -1 1c1,0 1,1 2,1l4 0c1,0 1,-1 2,-1l0 -1c-1,0 -7,-6 -7,-7l0 -1c0,0 1,-3 3,-3l0 0c1,0 5,6 6,6l6 0c1,-3 2,-1 2,-4l0 -1 1 0 1 2c-1,1 -4,5 -4,6 0,1 2,1 4,2 8,-5 10,-10 22,-10 2,3 3,0 3,5l1 3 0 1c0,1 1,1 1,2 0,3 0,2 1,5l-2 5 1 1 -2 1c0,1 -3,11 -4,13 -1,3 -1,3 -3,5 0,0 -3,5 -3,5l0 1c0,4 3,4 3,9 0,5 -2,13 -3,18 -1,2 -2,5 -2,8 0,1 1,8 -2,8 -1,0 0,0 -2,0 0,3 -7,8 -9,13l-1 0c-1,0 -3,3 -3,5 -4,2 -2,4 -4,4l-1 0 -2 3 -6 4 1 0c-4,0 -6,1 -9,1 -3,0 -6,-1 -10,-1 -1,0 -3,-1 -4,-2 -1,-1 -1,-2 -3,-3 -3,-1 -6,-3 -6,-7l0 -1 -2 0c-2,-4 -5,-4 -8,-9 -1,-2 -3,-1 -5,-2 -2,-1 -1,-4 -5,-4l0 0c-2,0 -2,1 -3,2 -2,0 -4,-2 -6,-2 -1,-1 -4,-4 -4,-6l-2 2c4,6 6,8 10,12 2,2 4,5 5,7 2,2 3,4 5,6 3,4 8,8 11,11 6,6 7,6 16,6 2,0 6,2 10,2 5,0 18,-1 21,-3 3,0 5,0 7,-2 5,-3 2,-2 6,-6 1,-1 6,-5 6,-5 1,-2 1,-3 1,-4 1,-2 3,-3 3,-4l0 -1c1,0 1,-2 2,-3 1,-3 1,-1 2,-3 2,-2 1,-5 4,-7l0 -2 3 -2c-2,-5 2,-3 2,-7l-1 0c0,-1 0,-1 0,-2 0,-1 2,0 2,-2l0 -4 1 0 0 2 0 5 3 0 -1 3c0,0 2,2 2,2 0,1 0,0 -1,2l2 2 -2 1 1 7 1 1 1 3 -2 4 2 3 -1 3 2 2c-1,1 -1,4 -3,5l0 4 0 5 1 0c0,-1 0,-1 0,-2l0 -2 2 -1 0 -3c3,-2 3,-4 3,-8 1,-3 3,-15 3,-19 0,-3 0,-8 -2,-9l2 -2 -1 -3 -2 2 0 -2c0,-6 0,-9 1,-15 0,-1 -2,-6 -2,-7 -2,-3 -1,-3 -2,-7l1 -1c3,1 15,7 15,7l1 -1 15 2 3 0c1,0 2,-2 4,-2 1,0 1,1 2,1l0 -3 -4 0 -1 0 -1 1 -2 0 -6 0 -2 0 -2 0 -3 0 -2 -1 -1 0 -1 -1 -1 0 0 -1 0 0 -1 -1 -3 0 -2 0 -1 -1 0 0 -1 -1 0 0 -4 -1 -2 0 -1 -1 0 0 -1 0 0 -1 0 0 -1 -1 0 -2 -1 -2 0 -7 0 0 0 -3 0 -3c0,-3 1,-3 0,-6l1 -12c0,-5 -3,-10 -1,-16 1,-2 2,-6 2,-7 1,-2 2,-4 2,-7l2 -1 0 -5 0 0c-1,-7 4,-12 1,-21l-1 -2 0 -4 0 -2 -1 -1 0 -3 -1 -4 0 -1 -1 -2 0 -2 -1 -2 0 -1 0 -1 -1 -2 0 -1 -1 -2 0 -1 -1 -1 0 -1 -1 0 0 -1 0 -2 -1 -1 0 -1 -1 -2 0 0 -1 -1 0 -1 -1 -1 0 -1 -1 -1 0 -3 0 -1 -1 0 0 -1 -1 -1 0 0 -1 -1 0 -1 -1 0 0 -1 0 -1 -1 -1 0 -1 -1 0 0 0 -1 -1 0 0 -1 -1 0 -1 0 -1 -1 0 0 -1 -1 -1 -1 0 0 -1 -1 0 0 -1 0 0 -1 -1 0 -1 -1 0 0 -1 -1 0 0 -1 -1 0 0 -1 -1 0 -1 -1 -1 0 -1 0 0 -1 -1 0 -1 -1 0 0 0 -1 -1 0 -1 -1 -1 0 -1 -1 0 0 -1 -1 -1 0 -1 -1 0 0 -1 -1 0 0 -1 0 -1 -1 -1 0 -1 -1 0 0 -1 -1 -1 0 -1 -1 0 0 -1 0 -1 -1 -1 0 -1 -1 -1 0 -1 -1 -3 0 -2 -1 -1 0 -1 -1 -1 0 -1 0 -1 -1 -2 0 -2 -1 -2 0 -3 -1 -1 0 -4 0 -5 0 -5 0 -3 0 -1 1zm-54 191l1 0 0 1 1 0 0 1 1 0 0 1 1 1 0 1 1 1 0 0 0 1 1 1 0 1 1 1 0 0 1 1 0 2 0 2 0 1 -1 1 0 1 -1 0 0 1 -1 0 0 0 -2 1 -1 0 0 1 -1 0 0 1 -1 0 0 1 -1 0 0 0 0 1 -1 1 0 0 -1 1 0 0 -1 1 0 0 -1 0 0 1 -1 0 0 1 -1 0 -1 1 -1 0 -1 1 -1 0 -1 0 -1 1 0 0 -1 1 0 0 -1 1 -1 0 -1 1 -1 0 -2 0 -1 1 0 0 0 1 -1 0 0 1 -1 0 0 1 -1 0 0 1 -1 0 0 0 -1 1 -1 0 -1 1 -1 0 -1 1 0 0 -1 1 0 0 0 1 1 0 0 1 1 1c1,-1 9,-6 11,-8 4,-3 6,-5 10,-8 2,-1 2,-1 5,-3 2,-1 3,-3 5,-4 2,-2 9,-7 11,-8l0 -2 -1 0 0 -3 3 0 1 1 1 -1c2,1 3,4 5,4 1,0 1,0 2,0 -1,-5 -4,-3 -7,-6 -1,-1 -7,-5 -9,-5l0 -2 -2 0c0,0 -5,-3 -7,-3l0 0 1 1zm85 -10l-1 -2 -2 -1 0 2 -5 0c-1,5 -3,8 -7,10 -6,3 -10,-4 -12,-4l0 0 -8 2c0,2 3,4 5,5 1,0 1,0 3,0l1 0 4 3 11 2c0,0 2,-2 3,-3 3,-1 1,-1 3,-2 2,1 3,2 5,2 1,0 6,0 6,-2 0,-3 -1,-2 1,-5l-1 -1c0,-7 3,-7 4,-11 -2,0 -1,-1 -4,-2 -2,-1 -2,1 -4,0 0,3 -1,6 -2,7zm13 21l1 1 -1 3c-4,0 -5,0 -5,3l-4 0c-1,0 0,2 -3,3 -2,0 -3,0 -4,1 -1,1 -8,3 -9,3l-1 0c-3,0 -8,-2 -8,-2 -3,0 -2,1 -4,1 -1,-4 -5,-1 -6,-5 5,-1 1,-1 9,-1 0,0 1,-2 3,-2 3,1 2,0 5,0 2,0 4,1 5,0 1,0 2,-1 4,-1 5,0 2,2 7,-1l2 0 3 -2 6 -1zm-69 2c0,2 0,5 2,6 2,-2 0,-4 3,-4l1 0c0,2 10,7 12,9 4,2 4,3 8,4 2,1 1,1 4,2 2,0 3,1 4,1l9 0c1,0 1,0 2,0 0,-2 0,-2 2,-2 3,0 2,-1 4,-1 2,0 2,3 3,3 4,0 8,-2 11,-4 5,-3 5,-4 8,-8 2,-2 2,-2 3,-5 1,-1 2,-2 3,-4 4,-4 5,-4 4,-10 -2,0 -1,0 -3,0 -3,0 -4,2 -8,2 -1,5 -12,6 -16,8l-2 -1c-3,4 -13,7 -20,5 -4,-1 -8,0 -13,0 -2,0 -4,-1 -6,-1 -3,0 -2,2 -4,-2l-4 2c-1,-1 -2,-2 -2,-3l0 0c0,-2 2,-2 2,-3l5 -11 0 0c-3,2 -12,13 -12,17zm-62 33l-1 1 0 0 0 1 -1 0 -1 0 0 1 -1 0 -1 1 -1 0 -1 1 0 0 -1 1 0 0 -1 0 0 1 0 0 -1 1 -1 0 -1 1 -1 0 0 1 -2 0 -1 0 -2 1 0 1 -1 0 0 1 -1 0 0 1 -1 0 -2 1 -1 0 0 0 -1 1 0 0 -1 1 0 0 -1 1 -1 0 -1 1 0 0 -1 1 0 0 -1 1 0 1 0 0 0 9 0 1c0,1 1,2 1,3l2 -1c0,-2 -1,-6 -1,-8l0 -1c0,-2 2,-2 3,-2 3,-4 5,-5 10,-8 0,1 2,2 3,2 1,0 1,-2 0,-2l2 0c1,-2 1,-4 2,-4 4,-2 1,-1 4,-3 4,-2 5,-4 7,-7l-1 0 0 -1 -1 0 0 0z"/>
 </g>
</svg>
