<?xml version="1.0" encoding="UTF-8"?>
<!DOCTYPE svg PUBLIC "-//W3C//DTD SVG 1.1//EN" "http://www.w3.org/Graphics/SVG/1.1/DTD/svg11.dtd">
<!-- Creator: CorelDRAW X7 -->
<svg xmlns="http://www.w3.org/2000/svg" xml:space="preserve" width="50mm" height="50mm" version="1.1" style="shape-rendering:geometricPrecision; text-rendering:geometricPrecision; image-rendering:optimizeQuality; fill-rule:evenodd; clip-rule:evenodd"
viewBox="0 0 5000 5000"
 xmlns:xlink="http://www.w3.org/1999/xlink">
 <defs>
  <style type="text/css">
   <![CDATA[
    .fil0 {fill:#66C3D0}
   ]]>
  </style>
 </defs>
 <g id="Layer_x0020_1">
  <metadata id="CorelCorpID_0Corel-Layer"/>
  <path class="fil0" d="M2450 1587l-39 3 -36 3 -15 3 -18 3 -6 3 -6 3 -9 3 -9 3 -15 3 -18 3 -6 3 -6 3 -9 3 -9 3 -12 3 -12 3 -6 3 -6 3 -6 3 -6 3 -6 3 -3 3 -3 3 -6 3 -3 3 -6 3 -3 3 -6 3 -6 3 -6 3 -9 3 -6 3 -9 3 -3 3 -3 3 -7 3 -3 3 -6 3 -6 3 -6 3 -9 3 -6 3 -9 3 -3 3 -3 3 -6 3 -3 3 -6 3 -6 3 -6 3 -3 4 -3 3 -6 3 -3 3 -3 3 -3 3 -3 3 -6 3 -3 3 -6 3 -6 3 -6 3 -3 3 -6 3 -3 3 -3 3 -3 3 -3 6 -3 6 -3 3 -3 3 -3 3 -3 3 -6 3 -3 6 -3 3 -3 3 -3 3 -3 3 -3 6 -3 3 0 6 -6 0 -3 6 -3 6 -3 3 -3 6 -3 3 -3 3 -3 3 -3 3 -3 6 -3 3 -3 6 -3 3 -3 6 -3 6 -3 12 -3 12 -3 6 -3 6 -3 9 -3 6 -3 6 -3 9 -3 9 -3 6 -3 9 0 1 -1 2 -3 9 -3 5 0 0 -3 6 0 0 -3 6 -3 6 0 0 -3 6 0 1 0 1 -3 9 0 0 0 1 -3 15 0 0 -3 21 -3 11 -3 12 -1 1 0 1 0 19 0 0 1 1 3 15 3 15 0 2 0 1 3 6 0 0 3 5 3 8 3 9 0 1 0 1 1 1 0 1 0 9 3 48 3 15 3 12 3 18 3 9 3 15 3 18 3 12 3 6 3 12 3 9 3 9 3 9 3 9 3 6 3 6 3 9 3 9 3 15c0,26 5,46 9,68 15,6 21,36 28,52 22,51 16,14 40,37 25,24 29,84 73,84 7,0 4,-1 12,-3 0,-18 -1,-24 -3,-39 -3,-26 6,-26 6,-30 0,-16 -11,-39 -15,-49l24 -2 13 30 6 -6 2 18 12 0 -2 -12 17 9 0 27c0,10 -6,4 -6,15l0 9c0,6 15,24 22,24l6 0c24,0 42,-5 60,-3 37,2 25,11 50,-6l-14 -36c2,-6 6,-21 12,-21 8,0 28,42 45,42 11,0 30,-19 35,-28 7,-10 13,-44 19,-44 21,0 18,18 39,18l15 0 0 15c0,5 2,9 6,9 10,0 3,-3 16,-5l-22 25 -3 -2 0 6 4 -1 5 19c39,-1 17,-28 63,3 2,-3 6,-14 6,-18 0,-49 3,-79 -29,-106 -5,-4 -93,-44 -97,-44 -9,-1 -52,2 -66,2 -28,2 -21,21 -39,34 -17,12 -25,16 -46,26 -15,6 -45,-8 -48,18l-27 10c-6,-25 -45,-8 -45,-93 0,-32 -17,-33 -21,-49l-18 6 -4 -47 -17 -40c4,-5 6,-5 6,-12l0 -3c0,-12 -5,-16 -12,-21 0,-21 -18,-58 -25,-83 -6,-23 -17,-60 -17,-85 10,-3 25,-33 33,-43 17,-24 18,-18 41,-34 21,-14 17,-26 47,-23 14,1 43,-27 51,-27l6 0c30,0 36,15 60,15l12 0c21,0 18,-18 39,-18l6 0c15,0 12,24 24,24 13,0 9,-18 24,-18l6 0c5,0 20,12 48,12 5,3 11,9 18,9 22,0 41,-5 49,-20 10,-19 29,-7 50,-18l28 2c31,21 17,16 33,48 50,0 45,-5 61,-37l11 13c49,0 28,-27 48,-57 0,-41 6,-32 30,-42l48 -3 6 0c15,0 26,15 40,18 26,5 10,-13 46,7 27,15 42,40 50,71l-25 12c0,19 0,29 -12,36 0,23 -9,18 -9,37 0,6 11,3 11,19l-6 10 4 25c-9,3 -12,17 -12,30 0,12 12,12 19,18 7,5 6,14 11,24 -2,5 -6,13 -6,21 0,13 22,64 31,66 0,53 -10,63 -61,63l-9 9 -39 3 -3 0c-18,0 -32,-7 -45,-8 -12,0 -40,8 -45,8 -35,0 -47,0 -71,22 -19,17 -33,34 -45,58 -14,27 -16,46 -6,79 4,14 6,28 10,40 5,14 12,22 16,36 31,-9 32,-33 42,-33 14,0 23,6 36,9l12 -6c-10,-15 -41,-45 -66,-45l-3 -9c1,-12 9,-42 18,-42 15,0 6,11 6,24l0 12 42 6 -1 4 -11 11c7,1 7,3 15,3l27 0c8,0 8,-2 15,-3l0 -6c-7,-3 -48,-42 -48,-48l0 -6c0,-5 10,-24 18,-24l3 0c7,0 32,42 39,40l42 2c5,-19 15,-5 15,-27l0 -9 6 0 3 15c-3,5 -24,35 -24,39 0,11 15,8 27,15 56,-30 68,-66 151,-66 11,17 18,2 18,36l9 15 -6 12c3,2 12,7 12,12 0,20 -5,12 7,33l-13 30 3 12 -12 6c0,7 -22,74 -26,86 -7,21 -6,21 -20,34 -2,1 -20,36 -20,36l0 3c0,25 15,28 15,61 0,35 -11,89 -20,119 -4,14 -11,39 -12,55 0,10 5,57 -11,57 -6,0 -3,-1 -12,-3 -4,19 -52,54 -60,87l-9 0c-10,0 -24,24 -24,36 -22,12 -9,28 -24,28l-8 0 -12 20 -39 22 2 3c-25,0 -38,9 -60,9 -19,-1 -41,-6 -63,-6 -7,-5 -22,-12 -27,-16 -10,-8 -8,-11 -22,-19 -18,-11 -39,-21 -39,-47l0 -9 -15 3c-16,-30 -32,-28 -51,-60 -10,-18 -21,-9 -38,-19 -13,-7 -7,-26 -31,-26l-3 0c-9,0 -13,8 -15,15 -13,0 -31,-10 -45,-15 -8,-3 -24,-28 -28,-37l-8 13c22,42 38,51 67,83 8,10 22,32 32,44 12,15 22,25 33,42 19,27 51,52 76,75 37,35 43,39 105,39 11,0 44,12 66,12 37,0 120,-4 141,-18 23,0 33,-5 52,-17 31,-19 14,-15 38,-38 7,-7 38,-33 39,-36 7,-11 5,-16 9,-27 5,-11 16,-16 16,-24l0 -9c9,-2 13,-10 16,-19 10,-22 5,-6 16,-20 11,-13 7,-36 25,-48l-3 -12 21 -12c-9,-36 16,-24 18,-48l-9 0c-2,-8 -3,-6 -3,-12 0,-9 15,-6 15,-18l0 -24 6 0 0 12 3 32 16 4 -4 15c2,4 12,13 12,15 0,7 -1,4 -3,12l13 14 -16 7 5 46 9 9 7 23 -12 27 12 21 -6 15 12 13c-6,12 -7,32 -22,36l4 26 -3 37 6 0c2,-7 3,-7 3,-15l1 -11 11 -7 0 -24c18,-12 18,-26 18,-54 10,-16 21,-102 21,-130 0,-15 5,-49 -11,-55l10 -14 -3 -22 -14 16 0 -18c0,-36 3,-57 9,-100 0,-6 -13,-39 -16,-43 -15,-23 -8,-23 -13,-49l5 -7c21,5 100,46 102,46l7 -3 102 9 21 0c7,0 12,-9 27,-9 7,0 3,1 12,3l0 -22 -24 0 -9 3 -9 4 -15 3 -34 0 -15 -3 -15 0 -18 0 -15 -4 -9 -3 -6 -3 -3 -3 -3 -3 -3 -3 -6 -3 -21 -3 -9 -3 -6 -3 -3 -3 -3 -3 -6 -3 -27 -3 -9 -3 -6 -3 -3 -3 -3 -3 -3 -3 -3 -3 -3 -6 -3 -9 -3 -15 0 -48 0 -3 0 -18 0 -18c0,-24 5,-25 0,-45l3 -78c2,-32 -18,-70 -3,-109 3,-11 10,-41 13,-47 7,-15 14,-24 14,-46l10 -8 0 -31 4 -1c-6,-49 24,-81 4,-140l-3 -18 -3 -27 -3 -9 -3 -9 -3 -19 -3 -27 -3 -9 -3 -9 -3 -15 -3 -15 -3 -9 -3 -6 -3 -9 -3 -9 -3 -12 -3 -6 -3 -6 -3 -6 -3 -6 -3 -6 -3 -9 -3 -9 -3 -9 -3 -9 -3 -3 -3 -6 -3 -6 -3 -6 -3 -9 -3 -9 -3 -18 -3 -3 -3 -6 -3 -3 -3 -6 -3 -3 -3 -6 -3 -3 -3 -6 -3 -6 -3 -6 -3 -6 -3 -3 -3 -3 -3 -3 -3 -3 -3 -3 -3 -6 -3 -3 -3 -6 -3 -6 -3 -6 -3 -3 -6 -3 -3 -3 -3 -3 -3 -3 -3 -3 -3 -6 -3 -6 -3 -3 -3 -4 -3 -3 -3 -3 -6 -3 -3 -3 -6 -3 -3 -3 -7 -3 -6 -3 -3 -3 -6 -3 -3 -3 -3 -3 -3 -3 -6 -3 -3 -6 -6 -3 -6 -3 -6 -3 -6 -3 -3 -3 -6 -3 -3 -3 -3 -3 -3 -3 -6 -3 -6 -3 -6 -3 -6 -3 -6 -3 -6 -3 -3 -3 -6 -3 -3 -3 -3 -3 -9 -3 -6 -3 -9 -3 -6 -3 -6 -3 -18 -3 -15 -3 -9 -3 -9 -3 -6 -3 -6 -3 -6 -3 -9 -3 -15 -3 -12 -3 -21 -3 -6 0 -30 0 -33 0 -34 0 -21 0 -9 3zm-361 1284l6 3 3 4 3 3 3 3 3 3 3 6 3 6 3 6 4 6 3 3 3 6 3 9 3 6 3 3 3 3 3 6 3 12 0 12 -3 12 -3 6 -3 3 -3 3 -3 3 -3 3 -6 3 -10 3 -6 3 -3 3 -3 3 -3 3 -3 3 -3 3 -3 3 -3 3 -3 6 -3 3 -3 3 -3 3 -3 3 -3 3 -3 3 -3 3 -3 3 -6 3 -3 3 -6 3 -6 3 -6 3 -9 3 -6 3 -6 3 -3 3 -3 3 -6 3 -3 3 -6 3 -6 3 -6 3 -9 3 -9 3 -6 3 -3 3 -3 3 -3 3 -3 3 -3 3 -3 3 -3 3 -3 3 -3 3 -6 3 -3 3 -6 3 -6 3 -6 3 -9 3 -3 3 -3 3 -3 6 0 3 6 0 0 9 12 3c5,-7 55,-41 69,-51 26,-21 41,-32 69,-51 17,-11 14,-12 36,-24 10,-5 21,-21 31,-29 11,-9 64,-46 75,-49l0 -18 -4 0 -2 -21 21 3 3 9 9 -6c10,7 20,27 36,27 7,0 6,-3 12,-6 -7,-32 -31,-16 -48,-39 -6,-8 -49,-33 -60,-33l-3 -15 -12 0c-1,0 -34,-16 -43,-19l0 3 3 3zm569 -66l-3 -15 -12 -6 -3 14 -33 1c-8,32 -21,57 -48,70 -37,19 -67,-28 -79,-28l-3 -1 -54 10c5,17 23,31 36,40 7,-2 9,-3 18,-3l8 2 26 18 75 10c0,0 18,-13 23,-16 18,-7 4,-8 22,-17 13,7 17,19 32,16 7,-1 37,-3 37,-10 0,-22 -4,-20 9,-39l-9 -7c4,-48 21,-46 27,-69 -12,-4 -6,-12 -23,-16 -17,-5 -13,7 -31,-2 0,20 -4,40 -15,48zm90 144l6 4 -8 18c-21,0 -29,5 -31,24l-24 0c-12,0 -5,10 -22,17 -12,5 -18,5 -29,10 -7,3 -52,18 -60,18l-3 0c-25,0 -55,-12 -57,-12 -17,0 -11,8 -28,9 -6,-26 -32,-12 -39,-36 36,-9 8,-9 58,-9 2,0 9,-11 25,-8 21,3 14,-1 32,-1 11,-1 26,2 31,1 10,-3 12,-10 26,-10 37,0 18,11 48,-9l12 3 21 -14 42 -5zm-463 10c0,16 2,32 12,39 12,-9 1,-27 18,-27l9 0c4,18 67,53 85,65 21,12 26,16 48,27 16,7 12,6 30,10 15,3 19,12 27,12l57 0c9,0 12,-3 18,-6 -3,-11 -5,-13 10,-11 22,3 14,-4 26,-4 14,0 16,18 24,18 27,0 55,-17 74,-28 34,-19 30,-28 53,-52 12,-13 11,-17 19,-32 7,-12 16,-19 23,-29 23,-30 30,-29 26,-67 -12,-1 -6,-3 -18,-3 -23,0 -33,18 -54,19 -7,27 -85,34 -111,48l-15 -3c-15,28 -87,48 -134,34 -23,-7 -54,-4 -83,-4 -18,0 -29,-1 -43,-3 -24,-3 -14,12 -26,-13l-30 13c-3,-7 -12,-18 -12,-21l0 -3c0,-10 12,-14 16,-20l32 -69 -3 -2c-18,13 -78,88 -78,112zm-418 225l-3 3 -3 3 -3 3 -3 3 -6 3 -3 3 -6 3 -6 3 -6 3 -6 3 -3 3 -3 3 -3 3 -3 3 -3 3 -3 3 -6 3 -3 3 -6 3 -6 3 -6 3 -9 3 -9 3 -12 3 -3 7 -3 3 -4 3 -3 3 -3 3 -6 3 -9 3 -9 3 -3 3 -3 3 -3 3 -3 3 -3 3 -6 3 -9 3 -3 3 -3 3 -3 6 -3 3 -3 6 -3 3 0 3 1 57 -1 12c0,7 5,9 9,15l12 -4c-1,-15 -9,-41 -9,-53l0 -9c0,-12 12,-12 24,-12 20,-29 31,-36 64,-51 4,2 16,9 21,9 8,0 4,-10 3,-15l12 2c6,-12 6,-27 12,-29 27,-12 9,-4 29,-17 22,-14 31,-26 43,-50l-6 0 0 -6 -3 0 -3 3z"/>
 </g>
</svg>
