<?xml version="1.0" encoding="UTF-8"?>
<!DOCTYPE svg PUBLIC "-//W3C//DTD SVG 1.1//EN" "http://www.w3.org/Graphics/SVG/1.1/DTD/svg11.dtd">
<!-- Creator: CorelDRAW X7 -->
<svg xmlns="http://www.w3.org/2000/svg" xml:space="preserve" width="866px" height="1339px" version="1.1" style="shape-rendering:geometricPrecision; text-rendering:geometricPrecision; image-rendering:optimizeQuality; fill-rule:evenodd; clip-rule:evenodd"
viewBox="0 0 866 1338"
 xmlns:xlink="http://www.w3.org/1999/xlink">
 <defs>
  <style type="text/css">
   <![CDATA[
    .fil0 {fill:#E44D26}
    .fil1 {fill:#FC7135}
    .fil2 {fill:#FEFEFE}
    .fil3 {fill:black;fill-rule:nonzero}
   ]]>
  </style>
 </defs>
 <g id="Слой_x0020_1">
  <metadata id="CorelCorpID_0Corel-Layer"/>
  <polygon class="fil0" points="90,1165 17,315 849,315 774,1165 433,1260 "/>
  <polygon class="fil1" points="435,1187 435,382 773,384 711,1108 "/>
  <polygon class="fil2" points="199,801 172,486 694,486 685,590 288,590 298,697 676,697 647,1016 435,1077 218,1018 204,854 311,854 319,937 435,968 548,936 559,801 "/>
  <path class="fil3" d="M208 239l0 -59 -55 0 0 59 -48 0 0 -159 48 0 0 59 55 0 0 -59 48 0 0 159 -48 0zm160 -122l0 122 -48 0 0 -122 -45 0 0 -37 138 0 0 37 -45 0zm211 122l0 -87c0,-8 0,-17 0,-27l1 -8 -2 0c-2,13 -4,22 -5,26l-24 96 -45 0 -24 -94c-1,-3 -3,-12 -6,-28l-1 0c1,25 2,41 2,47l0 75 -42 0 0 -159 71 0 22 86c1,2 2,6 2,11 1,6 2,10 2,13l1 0c1,-7 2,-15 4,-24l20 -86 71 0 0 159 -47 0zm78 0l0 -159 48 0 0 122 55 0 0 37 -103 0z"/>
 </g>
</svg>
