<?xml version="1.0" encoding="UTF-8"?>
<!DOCTYPE svg PUBLIC "-//W3C//DTD SVG 1.1//EN" "http://www.w3.org/Graphics/SVG/1.1/DTD/svg11.dtd">
<!-- Creator: CorelDRAW X7 -->
<svg xmlns="http://www.w3.org/2000/svg" xml:space="preserve" width="1181px" height="1339px" version="1.1" style="shape-rendering:geometricPrecision; text-rendering:geometricPrecision; image-rendering:optimizeQuality; fill-rule:evenodd; clip-rule:evenodd"
viewBox="0 0 1181 1338"
 xmlns:xlink="http://www.w3.org/1999/xlink">
 <defs>
  <style type="text/css">
   <![CDATA[
    .fil0 {fill:#53C1DE}
   ]]>
  </style>
 </defs>
 <g id="Слой_x0020_1">
  <metadata id="CorelCorpID_0Corel-Layer"/>
  <g id="_745929838656">
   <path class="fil0" d="M971 603c-12,-5 -25,-9 -38,-12 2,-9 4,-18 6,-26 29,-140 10,-253 -54,-290 -62,-35 -163,2 -265,90 -9,9 -19,18 -29,27 -6,-6 -13,-12 -20,-18 -106,-94 -213,-134 -277,-97 -62,36 -80,141 -54,274 2,12 5,26 9,39 -16,4 -30,9 -44,14 -125,43 -205,111 -205,182 0,74 86,147 216,191 10,4 21,7 32,10 -4,15 -7,29 -9,43 -25,130 -6,233 56,268 63,37 169,-1 273,-91 8,-7 16,-15 25,-23 10,10 21,20 32,29 100,87 199,121 260,86 64,-37 84,-148 58,-283 -2,-10 -5,-21 -7,-31 7,-2 14,-5 22,-7 135,-45 223,-117 223,-192 0,-71 -82,-140 -210,-183l0 0 0 0zm-29 327c-7,2 -13,4 -20,6 -15,-47 -35,-97 -60,-149 24,-51 43,-101 57,-148 13,4 24,7 36,11 109,38 176,93 176,136 0,46 -72,105 -189,144l0 0 0 0zm-49 96c12,60 14,114 6,156 -7,38 -21,63 -39,73 -37,22 -117,-6 -202,-80 -10,-8 -20,-18 -30,-27 33,-37 66,-79 99,-126 57,-5 111,-13 160,-24 2,9 4,19 6,28l0 0 0 0zm-490 226c-37,12 -66,13 -83,3 -37,-22 -53,-105 -32,-216 3,-13 5,-26 9,-39 48,10 102,18 159,23 33,46 67,88 101,125 -7,7 -15,14 -22,21 -46,40 -92,68 -132,83l0 0 0 0zm-171 -322c-57,-20 -105,-46 -137,-73 -30,-26 -45,-50 -45,-71 0,-43 65,-98 171,-135 13,-4 27,-9 41,-13 15,48 34,99 58,150 -24,51 -44,102 -59,151 -10,-3 -19,-6 -29,-9l0 0 0 0zm57 -389c-22,-113 -7,-199 30,-220 40,-23 127,9 219,91 6,5 12,11 18,16 -35,37 -69,79 -101,125 -55,5 -109,13 -158,24 -3,-12 -5,-24 -8,-36l0 0 0 0zm510 126c-12,-20 -24,-40 -36,-59 38,4 74,11 108,19 -11,32 -23,66 -38,101 -11,-20 -22,-41 -34,-61l0 0 0 0zm-208 -203c23,26 47,54 70,84 -24,-1 -47,-1 -71,-1 -23,0 -46,0 -69,1 23,-30 46,-58 70,-84l0 0 0 0zm-209 203c-12,20 -23,41 -33,61 -15,-35 -28,-69 -38,-102 34,-8 70,-14 107,-18 -12,19 -24,39 -36,59l0 0 0 0zm37 302c-38,-5 -75,-11 -109,-18 11,-34 24,-69 39,-104 10,20 21,41 33,61l0 0c12,21 25,41 37,61l0 0 0 0zm173 143c-23,-26 -47,-55 -71,-85 23,1 46,1 69,1 25,0 48,0 72,-1 -23,31 -46,59 -70,85l0 0 0 0zm241 -267c16,36 29,71 40,104 -34,8 -71,14 -110,19 12,-20 24,-40 36,-60 12,-21 23,-42 34,-63l0 0 0 0zm-78 37c-18,32 -37,63 -56,92 -35,2 -72,4 -109,4 -36,0 -72,-2 -106,-4 -20,-29 -40,-60 -58,-91l0 0c-18,-32 -35,-64 -51,-95 16,-32 33,-64 51,-96l0 0c18,-31 37,-62 57,-91 35,-2 71,-4 107,-4l0 0c37,0 73,2 108,4 20,29 39,59 57,91 19,32 36,64 51,95 -15,31 -32,63 -51,95l0 0 0 0zm104 -563c40,23 55,115 30,235 -1,8 -3,16 -5,24 -49,-11 -102,-20 -158,-25 -32,-46 -66,-88 -100,-125 9,-8 19,-17 28,-25 87,-75 168,-105 205,-84l0 0 0 0z"/>
   <path class="fil0" d="M590 681c59,0 106,47 106,105 0,59 -47,106 -106,106 -58,0 -105,-47 -105,-106 0,-58 47,-105 105,-105z"/>
  </g>
 </g>
</svg>
