<?xml version="1.0" encoding="UTF-8"?>
<!DOCTYPE svg PUBLIC "-//W3C//DTD SVG 1.1//EN" "http://www.w3.org/Graphics/SVG/1.1/DTD/svg11.dtd">
<!-- Creator: CorelDRAW X7 -->
<svg xmlns="http://www.w3.org/2000/svg" xml:space="preserve" width="866px" height="1339px" version="1.1" style="shape-rendering:geometricPrecision; text-rendering:geometricPrecision; image-rendering:optimizeQuality; fill-rule:evenodd; clip-rule:evenodd"
viewBox="0 0 866 1338"
 xmlns:xlink="http://www.w3.org/1999/xlink">
 <defs>
  <style type="text/css">
   <![CDATA[
    .fil0 {fill:#53C1DE}
   ]]>
  </style>
 </defs>
 <g id="Слой_x0020_1">
  <metadata id="CorelCorpID_0Corel-Layer"/>
  <g id="_304934835408">
   <path class="fil0" d="M861 461c-14,-4 -28,-9 -43,-13 2,-10 5,-20 7,-29 32,-157 11,-284 -61,-325 -70,-40 -183,1 -297,101 -11,10 -22,20 -33,30 -8,-7 -15,-14 -22,-20 -120,-106 -240,-151 -313,-110 -69,41 -89,159 -60,308 3,15 6,29 10,44 -17,5 -34,10 -49,16 -141,49 -231,125 -231,205 0,82 97,165 243,215 12,4 24,8 36,11 -4,16 -8,32 -10,47 -28,147 -7,263 62,303 72,41 191,-2 308,-103 9,-8 18,-17 27,-26 12,12 24,23 36,33 113,97 225,136 293,96 72,-41 95,-166 65,-317 -3,-12 -5,-24 -8,-36 8,-2 16,-5 24,-8 153,-50 252,-132 252,-215 0,-80 -93,-157 -236,-207l0 0 0 0zm-33 369c-8,2 -15,4 -23,6 -16,-53 -39,-109 -67,-168 27,-57 48,-113 65,-165 13,4 26,8 39,12 123,42 198,105 198,153 0,51 -81,118 -212,162l0 0 0 0zm-55 108c13,67 15,127 7,175 -8,42 -24,71 -44,82 -42,24 -131,-7 -228,-90 -11,-10 -22,-20 -33,-31 37,-41 75,-88 111,-141 64,-6 125,-15 180,-28 3,11 5,22 7,33l0 0 0 0zm-551 253c-41,14 -74,15 -93,3 -42,-24 -60,-117 -36,-242 3,-14 6,-29 10,-44 54,12 114,21 179,26 37,52 75,99 114,141 -9,8 -17,16 -26,23 -51,45 -103,77 -148,93l0 0 0 0zm-192 -362c-64,-22 -118,-51 -154,-82 -33,-28 -50,-56 -50,-79 0,-48 72,-110 192,-152 15,-5 30,-10 46,-14 17,54 38,110 65,167 -27,58 -49,116 -66,170 -11,-3 -22,-6 -33,-10l0 0 0 0zm65 -437c-25,-127 -9,-223 33,-247 44,-26 142,11 246,102 7,6 13,12 20,19 -39,41 -77,88 -113,140 -63,5 -122,15 -177,27 -4,-14 -7,-27 -9,-41l0 0 0 0zm572 142c-13,-23 -27,-45 -40,-67 42,6 83,13 121,21 -12,37 -26,75 -43,115 -12,-23 -24,-46 -38,-69l0 0 0 0zm-233 -228c26,29 52,60 78,95 -26,-2 -53,-2 -79,-2 -26,0 -52,0 -78,2 26,-34 52,-66 79,-95l0 0 0 0zm-235 228c-13,23 -26,46 -38,69 -16,-39 -30,-78 -42,-115 38,-9 78,-16 120,-21 -14,22 -27,44 -40,67l0 0 0 0zm42 339c-44,-5 -85,-11 -123,-20 12,-38 26,-77 43,-117 12,23 25,46 38,69l0 0c13,23 27,46 42,68l0 0 0 0zm194 161c-27,-29 -53,-61 -80,-96 26,1 52,2 78,2 27,0 54,-1 80,-2 -26,35 -52,67 -78,96l0 0 0 0zm271 -300c18,40 33,80 44,117 -38,9 -80,16 -123,21 13,-22 27,-44 40,-68 14,-23 27,-47 39,-70l0 0 0 0zm-88 42c-21,36 -42,70 -63,103 -40,3 -81,4 -122,4 -41,0 -81,-1 -120,-4 -23,-33 -44,-67 -65,-103l0 0c-21,-35 -40,-71 -57,-107 17,-35 36,-71 57,-107l0 0c20,-35 42,-69 64,-102 40,-3 80,-5 121,-5l0 0c41,0 82,2 121,5 22,32 43,67 64,102 21,36 40,72 57,107 -17,35 -36,71 -57,107l0 0 0 0zm117 -633c45,26 62,129 34,264 -2,9 -4,18 -6,27 -55,-13 -115,-22 -177,-28 -37,-52 -75,-99 -113,-140 11,-10 21,-19 31,-28 98,-86 189,-119 231,-95l0 0 0 0z"/>
   <path class="fil0" d="M433 550c65,0 119,53 119,118 0,66 -54,119 -119,119 -65,0 -119,-53 -119,-119 0,-65 54,-118 119,-118z"/>
  </g>
 </g>
</svg>
